<?xml version="1.0" encoding="UTF-8" standalone="no"?>
<!-- Created with Inkscape (http://www.inkscape.org/) -->

<svg
   xmlns:dc="http://purl.org/dc/elements/1.1/"
   xmlns:cc="http://creativecommons.org/ns#"
   xmlns:rdf="http://www.w3.org/1999/02/22-rdf-syntax-ns#"
   xmlns:svg="http://www.w3.org/2000/svg"
   xmlns="http://www.w3.org/2000/svg"
   xmlns:sodipodi="http://sodipodi.sourceforge.net/DTD/sodipodi-0.dtd"
   xmlns:inkscape="http://www.inkscape.org/namespaces/inkscape"
   width="154.30632mm"
   height="36.114567mm"
   viewBox="0 0 546.75468 127.965"
   id="svg4153"
   version="1.1"
   inkscape:version="0.91 r13725"
   sodipodi:docname="brainspell.svg">
  <defs
     id="defs4155" />
  <sodipodi:namedview
     id="base"
     pagecolor="#ffffff"
     bordercolor="#666666"
     borderopacity="1.0"
     inkscape:pageopacity="0.0"
     inkscape:pageshadow="2"
     inkscape:zoom="0.47032268"
     inkscape:cx="121.87815"
     inkscape:cy="330.08269"
     inkscape:document-units="px"
     inkscape:current-layer="layer1"
     showgrid="false"
     fit-margin-top="0"
     fit-margin-left="0"
     fit-margin-right="0"
     fit-margin-bottom="0"
     inkscape:window-width="1920"
     inkscape:window-height="1155"
     inkscape:window-x="20"
     inkscape:window-y="0"
     inkscape:window-maximized="0" />
  <metadata
     id="metadata4158">
    <rdf:RDF>
      <cc:Work
         rdf:about="">
        <dc:format>image/svg+xml</dc:format>
        <dc:type
           rdf:resource="http://purl.org/dc/dcmitype/StillImage" />
        <dc:title></dc:title>
      </cc:Work>
    </rdf:RDF>
  </metadata>
  <g
     inkscape:label="Layer 1"
     inkscape:groupmode="layer"
     id="layer1"
     transform="translate(-64.814699,-734.47989)">
    <path
       id="path4760"
       style="font-style:normal;font-variant:normal;font-weight:200;font-stretch:normal;font-size:142.5px;line-height:125%;font-family:'Helvetica Neue';-inkscape-font-specification:'Helvetica Neue Ultra-Light';letter-spacing:0px;word-spacing:0px;fill:#ffffff;fill-opacity:1;stroke:none;stroke-width:1px;stroke-linecap:butt;stroke-linejoin:miter;stroke-opacity:1"
       d="m 611.56939,734.47989 0,101.745 -5.415,0 0,-101.745 5.415,0 z m -23.93555,0 0,101.745 -5.415,0 0,-101.745 5.415,0 z m -78.31488,65.835 0,0.855 q 0,6.4125 1.71,12.255 1.71,5.8425 4.9875,10.26 3.42,4.4175 8.4075,6.9825 5.13,2.565 11.8275,2.565 10.9725,0 17.385,-5.7 6.4125,-5.8425 8.835,-16.1025 l 5.415,0 q -2.4225,12.825 -10.545,19.665 -7.98,6.84 -21.2325,6.84 -8.1225,0 -14.25,-2.85 -5.985,-2.9925 -10.1175,-7.98 -3.99,-5.13 -5.985,-11.97 -1.995,-6.9825 -1.995,-14.9625 0,-7.695 1.995,-14.6775 2.1375,-7.125 6.27,-12.3975 4.1325,-5.415 10.26,-8.55 6.27,-3.2775 14.6775,-3.2775 7.695,0 13.5375,2.85 5.985,2.85 9.975,7.8375 3.99,4.845 5.985,11.4 2.1375,6.4125 2.1375,13.8225 0,0.7125 -0.1425,1.71 0,0.855 0,1.425 l -59.1375,0 z m 53.7225,-4.7025 q -0.285,-5.985 -1.995,-11.2575 -1.71,-5.415 -5.13,-9.405 -3.2775,-4.1325 -8.1225,-6.555 -4.7025,-2.4225 -10.83,-2.4225 -6.555,0 -11.5425,2.565 -4.9875,2.4225 -8.4075,6.555 -3.42,3.99 -5.2725,9.405 -1.8525,5.415 -2.28,11.115 l 53.58,0 z m -128.20547,-15.8175 0.285,0 q 0.855,-2.7075 2.85,-5.985 1.995,-3.2775 5.2725,-5.985 3.2775,-2.85 7.8375,-4.7025 4.7025,-1.8525 10.6875,-1.8525 8.4075,0 14.535,3.135 6.27,3.135 10.26,8.4075 4.1325,5.2725 6.1275,12.255 1.995,6.9825 1.995,14.6775 0,8.4075 -1.995,15.39 -1.995,6.9825 -6.1275,12.1125 -3.99,4.9875 -10.26,7.8375 -6.1275,2.85 -14.535,2.85 -9.12,0 -16.245,-3.99 -7.125,-3.99 -10.4025,-12.9675 l -0.285,0 0,41.4675 -5.415,0 0,-99.465 5.415,0 0,16.815 z m 26.9325,53.4375 q 7.125,0 12.255,-2.7075 5.2725,-2.7075 8.55,-7.2675 3.42,-4.56 4.9875,-10.545 1.71,-6.1275 1.71,-12.9675 0,-6.27 -1.5675,-12.255 -1.5675,-6.1275 -4.845,-10.83 -3.2775,-4.845 -8.55,-7.695 -5.13,-2.9925 -12.54,-2.9925 -7.2675,0 -12.3975,2.85 -5.13,2.85 -8.4075,7.5525 -3.135,4.7025 -4.56,10.83 -1.425,5.985 -1.425,12.54 0,6.555 1.2825,12.6825 1.2825,5.985 4.275,10.6875 3.135,4.56 8.265,7.41 5.2725,2.7075 12.9675,2.7075 z m -99.5318,-21.375 q 0.285,5.13 2.28,9.12 1.995,3.8475 5.13,6.6975 3.2775,2.7075 7.5525,4.1325 4.275,1.425 9.2625,1.425 3.5625,0 7.5525,-0.57 4.1325,-0.7125 7.5525,-2.4225 3.5625,-1.71 5.8425,-4.7025 2.28,-3.135 2.28,-7.8375 0,-6.1275 -3.705,-9.2625 -3.705,-3.135 -9.405,-4.845 -5.5575,-1.71 -12.1125,-2.7075 -6.4125,-1.14 -12.1125,-3.2775 -5.5575,-2.1375 -9.2625,-5.985 -3.705,-3.99 -3.705,-11.5425 0,-5.415 2.4225,-8.9775 2.4225,-3.705 6.1275,-5.8425 3.8475,-2.1375 8.55,-2.9925 4.7025,-0.9975 9.405,-0.9975 5.7,0 10.6875,1.2825 4.9875,1.2825 8.55,4.1325 3.705,2.85 5.7,7.2675 2.1375,4.4175 2.1375,10.6875 l -5.415,0 q 0,-4.9875 -1.71,-8.55 -1.5675,-3.5625 -4.56,-5.7 -2.85,-2.28 -6.84,-3.2775 -3.99,-1.14 -8.55,-1.14 -3.705,0 -7.5525,0.7125 -3.705,0.7125 -6.6975,2.4225 -2.9925,1.71 -4.9875,4.4175 -1.8525,2.7075 -1.8525,6.555 0,4.4175 2.1375,7.125 2.1375,2.7075 5.5575,4.4175 3.5625,1.5675 7.8375,2.565 4.4175,0.9975 8.835,1.995 5.415,0.9975 10.1175,2.4225 4.845,1.2825 8.265,3.705 3.5625,2.28 5.5575,5.985 1.995,3.705 1.995,9.405 0,5.985 -2.7075,9.8325 -2.7075,3.8475 -6.84,6.27 -4.1325,2.28 -9.2625,3.135 -4.9875,0.9975 -9.8325,0.9975 -6.27,0 -11.685,-1.71 -5.2725,-1.5675 -9.2625,-4.845 -3.99,-3.42 -6.27,-8.265 -2.28,-4.845 -2.4225,-11.2575 l 5.415,0 z m -76.5982,-48.8775 5.415,0 0,15.675 0.285,0 q 1.425,-4.1325 3.99,-7.2675 2.7075,-3.2775 6.1275,-5.5575 3.5625,-2.28 7.695,-3.42 4.1325,-1.14 8.4075,-1.14 6.4125,0 10.83,1.5675 4.56,1.5675 7.41,4.1325 2.85,2.565 4.4175,5.8425 1.71,3.135 2.4225,6.4125 0.7125,3.2775 0.855,6.4125 0.1425,2.9925 0.1425,5.2725 l 0,45.315 -5.415,0 0,-46.3125 q 0,-2.7075 -0.4275,-6.84 -0.4275,-4.1325 -2.565,-7.8375 -1.995,-3.8475 -6.27,-6.555 -4.1325,-2.7075 -11.5425,-2.7075 -6.27,0 -11.115,2.28 -4.845,2.28 -8.265,6.4125 -3.42,3.99 -5.2725,9.69 -1.71,5.5575 -1.71,12.255 l 0,39.615 -5.415,0 0,-73.245 z m -22.65305,-13.8225 0,-14.6775 5.415,0 0,14.6775 -5.415,0 z m 0,87.0675 0,-73.245 5.415,0 0,73.245 -5.415,0 z m -23.94,-14.535 -0.285,0 q -1.2825,3.2775 -3.705,6.27 -2.4225,2.85 -5.985,5.13 -3.42,2.28 -7.8375,3.5625 -4.4175,1.2825 -9.69,1.2825 -11.685,0 -18.0975,-4.9875 -6.4125,-5.13 -6.4125,-15.675 0,-6.4125 2.565,-10.4025 2.565,-4.1325 6.4125,-6.4125 3.99,-2.4225 8.6925,-3.42 4.845,-0.9975 9.2625,-1.425 l 8.4075,-0.7125 q 5.8425,-0.4275 9.12,-1.2825 3.42,-0.9975 5.13,-2.565 1.71,-1.71 2.1375,-4.275 0.4275,-2.565 0.4275,-6.4125 0,-2.9925 -1.14,-5.5575 -1.14,-2.565 -3.5625,-4.56 -2.4225,-1.995 -6.27,-3.135 -3.8475,-1.14 -9.405,-1.14 -9.8325,0 -15.96,4.845 -5.985,4.845 -6.555,14.6775 l -5.415,0 q 0.57,-12.1125 7.695,-18.0975 7.2675,-6.1275 20.52,-6.1275 13.2525,0 19.2375,5.2725 6.1275,5.13 6.1275,13.5375 l 0,42.6075 q 0,1.5675 0,3.135 0.1425,1.5675 0.57,2.85 0.4275,1.2825 1.425,2.1375 0.9975,0.7125 2.85,0.7125 1.425,0 3.99,-0.4275 l 0,4.56 q -2.1375,0.57 -4.4175,0.57 -3.2775,0 -5.2725,-0.855 -1.8525,-0.855 -2.85,-2.28 -0.9975,-1.425 -1.425,-3.2775 -0.285,-1.995 -0.285,-4.275 l 0,-3.8475 z m 0,-27.075 q -1.995,2.4225 -6.1275,3.2775 -3.99,0.855 -8.9775,1.2825 l -9.12,0.855 q -3.99,0.4275 -7.98,1.2825 -3.99,0.7125 -7.2675,2.565 -3.135,1.8525 -5.13,5.13 -1.995,3.135 -1.995,8.265 0,8.1225 5.13,12.1125 5.13,3.8475 14.1075,3.8475 9.2625,0 14.6775,-3.2775 5.415,-3.42 8.265,-7.695 2.85,-4.4175 3.5625,-8.4075 0.855,-4.1325 0.855,-5.5575 l 0,-13.68 z m -80.1941,-15.39 0.4275,0 q 0.9975,-3.5625 3.5625,-6.6975 2.7075,-3.135 6.4125,-5.415 3.8475,-2.28 8.4075,-3.42 4.7025,-1.2825 9.69,-1.14 l 0,5.415 q -4.275,-0.57 -9.8325,0.855 -5.415,1.425 -10.4025,6.27 -1.995,2.1375 -3.5625,4.1325 -1.425,1.995 -2.4225,4.4175 -0.9975,2.4225 -1.5675,5.415 -0.57,2.9925 -0.7125,7.125 l 0,40.0425 -5.415,0 0,-73.245 5.415,0 0,16.245 z m -94.036641,-44.745 40.755001,0 q 9.12,0 15.2475,2.28 6.1275,2.28 9.8325,5.985 3.705,3.705 5.2725,8.55 1.71,4.7025 1.71,9.5475 0,4.1325 -1.425,7.8375 -1.425,3.705 -4.1325,6.555 -2.565,2.85 -6.27,4.845 -3.5625,1.8525 -7.98,2.4225 l 0.285,0.285 q 0.9975,-0.1425 4.7025,0.855 3.705,0.9975 7.695,3.8475 4.1325,2.7075 7.2675,7.695 3.2775,4.845 3.2775,12.54 0,6.9825 -2.565,12.255 -2.565,5.2725 -7.2675,8.9775 -4.56,3.5625 -11.115,5.415 -6.555,1.8525 -14.535,1.8525 l -40.755001,0 0,-101.745 z m 40.755001,46.17 q 12.9675,0 19.38,-5.7 6.4125,-5.8425 6.4125,-15.2475 0,-5.5575 -2.1375,-9.2625 -2.1375,-3.8475 -5.7,-6.1275 -3.5625,-2.4225 -8.265,-3.42 -4.56,-0.9975 -9.69,-0.9975 l -34.485001,0 0,40.755 34.485001,0 z m 0,50.16 q 13.68,0 21.375,-5.7 7.8375,-5.8425 7.8375,-17.385 0,-6.555 -2.7075,-10.6875 -2.7075,-4.275 -6.9825,-6.6975 -4.1325,-2.4225 -9.405,-3.2775 -5.13,-0.9975 -10.1175,-0.9975 l -34.485001,0 0,44.745 34.485001,0 z" />
  </g>
</svg>
